<svg width="24" height="25" viewBox="0 0 24 25" fill="none" xmlns="http://www.w3.org/2000/svg">
<rect y="0.580811" width="24" height="23.8384" rx="11.9192" fill="black"/>
<path d="M11.8157 5.69066L11.1969 6.30938C11.0505 6.45582 11.0505 6.69326 11.1969 6.83972L16.0448 11.6875H5.375C5.16791 11.6875 5 11.8554 5 12.0625V12.9375C5 13.1446 5.16791 13.3125 5.375 13.3125H16.0448L11.1969 18.1603C11.0505 18.3068 11.0505 18.5442 11.1969 18.6907L11.8157 19.3094C11.9621 19.4558 12.1995 19.4558 12.346 19.3094L18.8902 12.7652C19.0366 12.6188 19.0366 12.3813 18.8902 12.2348L12.346 5.69066C12.1995 5.54419 11.9621 5.54419 11.8157 5.69066Z" fill="white"/>
</svg>
