<svg width="14" height="17" viewBox="0 0 14 17" fill="none" xmlns="http://www.w3.org/2000/svg">
<g clip-path="url(#clip0_207_21)">
<path d="M6.81566 1.8673L6.19694 2.48602C6.0505 2.63245 6.0505 2.86989 6.19694 3.01636L11.0448 7.86414H0.375C0.167906 7.86414 0 8.03205 0 8.23914V9.11414C0 9.32124 0.167906 9.48914 0.375 9.48914H11.0448L6.19694 14.337C6.0505 14.4834 6.0505 14.7208 6.19694 14.8673L6.81566 15.486C6.96209 15.6325 7.19953 15.6325 7.346 15.486L13.8902 8.94183C14.0366 8.79539 14.0366 8.55795 13.8902 8.41149L7.34597 1.8673C7.19953 1.72083 6.96209 1.72083 6.81566 1.8673Z" fill="black"/>
</g>
<defs>
<clipPath id="clip0_207_21">
<rect width="14" height="16" fill="white" transform="translate(0 0.676758)"/>
</clipPath>
</defs>
</svg>
