<svg width="14" height="17" viewBox="0 0 14 17" fill="none" xmlns="http://www.w3.org/2000/svg">
<g clip-path="url(#clip0_207_11)">
<path d="M7.18434 1.8673L7.80306 2.48602C7.9495 2.63245 7.9495 2.86989 7.80306 3.01636L2.95525 7.86414H13.625C13.8321 7.86414 14 8.03205 14 8.23914V9.11414C14 9.32124 13.8321 9.48914 13.625 9.48914H2.95525L7.80306 14.337C7.9495 14.4834 7.9495 14.7208 7.80306 14.8673L7.18434 15.486C7.03791 15.6325 6.80047 15.6325 6.654 15.486L0.109813 8.94183C-0.0366249 8.79539 -0.0366249 8.55795 0.109813 8.41149L6.65403 1.8673C6.80047 1.72083 7.03791 1.72083 7.18434 1.8673Z" fill="black"/>
</g>
<defs>
<clipPath id="clip0_207_11">
<rect width="14" height="16" fill="white" transform="matrix(-1 0 0 1 14 0.676758)"/>
</clipPath>
</defs>
</svg>
