<svg width="30" height="26" viewBox="0 0 30 26" fill="none" xmlns="http://www.w3.org/2000/svg">
<path id="Vector" d="M29.2023 4.2234H1.01076C0.570138 4.2234 0.212891 3.86616 0.212891 3.42553V1.29787C0.212891 0.857247 0.570138 0.5 1.01076 0.5H29.2023C29.6429 0.5 30.0001 0.857247 30.0001 1.29787V3.42553C30.0001 3.86616 29.6429 4.2234 29.2023 4.2234ZM29.2023 14.8617H1.01076C0.570138 14.8617 0.212891 14.5045 0.212891 14.0638V11.9362C0.212891 11.4955 0.570138 11.1383 1.01076 11.1383H29.2023C29.6429 11.1383 30.0001 11.4955 30.0001 11.9362V14.0638C30.0001 14.5045 29.6429 14.8617 29.2023 14.8617ZM29.2023 25.5H1.01076C0.570138 25.5 0.212891 25.1428 0.212891 24.7021V22.5745C0.212891 22.1338 0.570138 21.7766 1.01076 21.7766H29.2023C29.6429 21.7766 30.0001 22.1338 30.0001 22.5745V24.7021C30.0001 25.1428 29.6429 25.5 29.2023 25.5Z" fill="black"/>
</svg>
