<svg width="453" height="285" viewBox="0 0 453 285" fill="none" xmlns="http://www.w3.org/2000/svg">
<path d="M167.355 8.74246C182.806 11.9204 197.332 19.9999 208.364 32.8156C235.063 63.8291 230.874 110.925 199.685 137.954L131.887 196.71L152.357 220.265C155.774 224.198 152.669 230.332 147.458 229.986L86.6103 225.94C83.3701 225.724 80.9395 222.928 81.1821 219.694L85.737 158.961C86.1296 153.73 92.6651 151.576 96.0638 155.487L116.534 179.043L184.418 120.212C205.7 101.77 208.601 69.0276 190.263 47.9701C183.099 39.7435 173.817 34.4055 163.897 32.052C161.081 31.384 159.154 28.815 159.373 25.9295C159.806 20.2283 160.092 16.5668 160.271 14.1152C160.53 10.5665 163.869 8.02598 167.355 8.74246ZM35.7374 182.03C17.3989 160.972 20.3003 128.23 41.5817 109.788L109.466 50.9569L129.936 74.5127C133.335 78.4231 139.871 76.2697 140.263 71.0383L144.818 10.3056C145.061 7.07172 142.63 4.27514 139.39 4.05957L78.5415 0.0140437C73.3309 -0.332195 70.2265 5.80232 73.6429 9.73451L94.1134 33.2903L26.3151 92.046C-4.87374 119.075 -9.06326 166.171 17.6361 197.184C28.6687 210 43.1943 218.08 58.6456 221.258C62.1314 221.974 65.4704 219.433 65.7295 215.885C65.9084 213.434 66.1946 209.773 66.6272 204.07C66.8462 201.185 64.9185 198.616 62.1034 197.948C52.183 195.595 42.9018 190.256 35.7374 182.03Z" fill="#E5E5E5" fill-opacity="0.08"/>
<path d="M394.355 63.7425C409.806 66.9204 424.332 74.9999 435.364 87.8156C462.063 118.829 457.874 165.925 426.685 192.954L358.887 251.71L379.357 275.265C382.774 279.198 379.669 285.332 374.458 284.986L313.61 280.94C310.37 280.724 307.94 277.928 308.182 274.694L312.737 213.961C313.13 208.73 319.665 206.576 323.064 210.487L343.534 234.043L411.418 175.212C432.7 156.77 435.601 124.028 417.263 102.97C410.099 94.7435 400.817 89.4055 390.897 87.052C388.081 86.384 386.154 83.815 386.373 80.9295C386.806 75.2283 387.092 71.5668 387.271 69.1152C387.53 65.5665 390.869 63.026 394.355 63.7425ZM262.737 237.03C244.399 215.972 247.3 183.23 268.582 164.788L336.466 105.957L356.936 129.513C360.335 133.423 366.871 131.27 367.263 126.038L371.818 65.3056C372.061 62.0717 369.63 59.2751 366.39 59.0596L305.541 55.014C300.331 54.6678 297.227 60.8023 300.643 64.7345L321.113 88.2903L253.315 147.046C222.126 174.075 217.937 221.171 244.636 252.184C255.669 265 270.194 273.08 285.646 276.258C289.131 276.974 292.47 274.433 292.729 270.885C292.908 268.434 293.195 264.773 293.627 259.07C293.846 256.185 291.919 253.616 289.103 252.948C279.183 250.595 269.902 245.256 262.737 237.03Z" fill="#E5E5E5" fill-opacity="0.08"/>
</svg>
