<svg width="25" height="25" viewBox="0 0 25 25" fill="none" xmlns="http://www.w3.org/2000/svg">
<g clip-path="url(#clip0_196_1493)">
<path d="M22.4165 7.42676H21.1931C21.4837 6.85957 21.6665 6.23145 21.6665 5.55176C21.6665 3.27832 19.8149 1.42676 17.5415 1.42676C15.5915 1.42676 14.3306 2.4252 12.7134 4.62832C11.0962 2.4252 9.83525 1.42676 7.88525 1.42676C5.61182 1.42676 3.76025 3.27832 3.76025 5.55176C3.76025 6.23145 3.93838 6.85957 4.23369 7.42676H2.9165C1.67432 7.42676 0.666504 8.43457 0.666504 9.67676V15.6768C0.666504 16.0893 1.004 16.4268 1.4165 16.4268H2.1665V21.4611C2.1665 22.8205 3.27275 23.9268 4.63213 23.9268H20.7009C22.0603 23.9268 23.1665 22.8205 23.1665 21.4611V16.4268H23.9165C24.329 16.4268 24.6665 16.0893 24.6665 15.6768V9.67676C24.6665 8.43457 23.6587 7.42676 22.4165 7.42676ZM11.5415 21.6768H4.63213C4.51494 21.6768 4.4165 21.583 4.4165 21.4611V16.4268H9.6665V14.1768H2.9165V9.67676H11.5415V21.6768ZM7.88057 7.42676C6.84463 7.42676 6.00557 6.5877 6.00557 5.55176C6.00557 4.51582 6.84463 3.67676 7.88057 3.67676C8.91182 3.67676 9.63838 4.03301 11.8228 7.28613L11.9165 7.42676H7.88057ZM13.5993 7.28613C15.7837 4.03301 16.5103 3.67676 17.5415 3.67676C18.5774 3.67676 19.4165 4.51582 19.4165 5.55176C19.4165 6.5877 18.5774 7.42676 17.5415 7.42676H13.5056L13.5993 7.28613ZM22.4165 14.1768H15.6665V16.4268H20.9165V21.4611C20.9165 21.5783 20.8228 21.6768 20.7009 21.6768H13.7915V9.67676H22.4165V14.1768Z" fill="#272729"/>
</g>
<defs>
<clipPath id="clip0_196_1493">
<rect width="24" height="24" fill="white" transform="translate(0.666504 0.676758)"/>
</clipPath>
</defs>
</svg>
