<svg width="18" height="25" viewBox="0 0 18 25" fill="none" xmlns="http://www.w3.org/2000/svg">
<g clip-path="url(#clip0_196_1477)">
<path d="M9 0.676758C4.0267 0.676758 0 4.70866 0 9.67676C0 13.0104 1.12458 14.0521 7.09083 23.6185C7.97137 25.0303 10.0296 25.0286 10.9091 23.6185C16.8785 14.0471 18 13.0097 18 9.67676C18 4.70346 13.9681 0.676758 9 0.676758ZM9 22.4268C3.027 12.8495 2.25 12.2449 2.25 9.67676C2.25 5.94884 5.27208 2.92676 9 2.92676C12.7279 2.92676 15.75 5.94884 15.75 9.67676C15.75 12.2339 15.0391 12.7436 9 22.4268Z" fill="#272729"/>
</g>
<defs>
<clipPath id="clip0_196_1477">
<rect width="18" height="24" fill="white" transform="translate(0 0.676758)"/>
</clipPath>
</defs>
</svg>
