<svg width="17" height="17" viewBox="0 0 17 17" fill="none" xmlns="http://www.w3.org/2000/svg">
<g clip-path="url(#clip0_196_1444)">
<path d="M15.223 1.21563L12.2793 0.537504C11.6043 0.381254 10.9168 0.731254 10.6449 1.36875L9.28552 4.54063C9.03552 5.12188 9.20427 5.80938 9.6949 6.20938L10.9449 7.23125C10.0511 8.86875 8.70115 10.2188 7.06365 11.1094L6.04177 9.85938C5.64177 9.36875 4.95427 9.2 4.37302 9.45L1.19802 10.8094C0.560522 11.0813 0.213647 11.7688 0.366772 12.4438L1.0449 15.3875C1.1949 16.0406 1.7699 16.4969 2.43865 16.4969C10.0918 16.5 16.3324 10.3031 16.3324 2.60938C16.3324 1.94063 15.8761 1.36563 15.223 1.21563ZM2.49802 15L1.8449 12.1656L4.91365 10.85L6.65427 12.9781C9.74177 11.5281 11.3605 9.91563 12.8105 6.82188L10.6824 5.08125L11.998 2.0125L14.8324 2.66563C14.8011 9.46563 9.29802 14.9688 2.49802 15Z" fill="#1A3837"/>
</g>
<defs>
<clipPath id="clip0_196_1444">
<rect width="16" height="16" fill="white" transform="translate(0.333252 0.5)"/>
</clipPath>
</defs>
</svg>
