<svg width="52" height="53" viewBox="0 0 52 53" fill="none" xmlns="http://www.w3.org/2000/svg">
<path d="M38.4513 2.79413C41.9229 3.50911 45.1866 5.32689 47.6653 8.21028C53.664 15.1881 52.7228 25.7841 45.7153 31.8653L30.4825 45.0847L35.0817 50.3845C35.8494 51.2692 35.1518 52.6495 33.981 52.5715L20.3097 51.6612C19.5817 51.6128 19.0356 50.9836 19.0901 50.2559L20.1135 36.5918C20.2017 35.4148 21.6701 34.9302 22.4337 35.81L27.0329 41.1098L42.2852 27.8736C47.0667 23.7242 47.7186 16.3576 43.5983 11.6199C41.9887 9.769 39.9033 8.56798 37.6744 8.03853C37.0418 7.88825 36.6088 7.31021 36.658 6.66107C36.7552 5.37831 36.8195 4.55454 36.8598 4.00295C36.918 3.20453 37.6682 2.63289 38.4513 2.79413V2.79413ZM8.87957 41.7819C4.7593 37.0442 5.41124 29.6776 10.1927 25.5282L25.4449 12.292L30.0442 17.5917C30.8077 18.4716 32.2763 17.987 32.3644 16.81L33.3877 3.14587C33.4423 2.4182 32.8962 1.78901 32.1682 1.74052L18.4968 0.830282C17.3261 0.75238 16.6286 2.13263 17.3962 3.01735L21.9955 8.31712L6.76261 21.5365C-0.244869 27.6178 -1.18616 38.2139 4.8126 45.1916C7.29139 48.0749 10.555 49.8927 14.0266 50.6077C14.8098 50.769 15.56 50.1973 15.6182 49.399C15.6584 48.8474 15.7227 48.0237 15.8199 46.7408C15.8691 46.0916 15.436 45.5136 14.8035 45.3633C12.5746 44.8339 10.4893 43.6328 8.87957 41.7819V41.7819Z" fill="#F2FF46"/>
</svg>
