<svg width="76" height="76" viewBox="0 0 76 76" fill="none" xmlns="http://www.w3.org/2000/svg">
<path d="M50.4513 14.363C53.9229 15.078 57.1866 16.8957 59.6653 19.7791C65.664 26.7569 64.7228 37.3529 57.7153 43.4342L42.4825 56.6536L47.0817 61.9533C47.8494 62.8381 47.1518 64.2183 45.981 64.1403L32.3097 63.2301C31.5817 63.1816 31.0356 62.5525 31.0901 61.8247L32.1135 48.1606C32.2017 46.9837 33.6701 46.499 34.4337 47.3789L39.0329 52.6787L54.2852 39.4424C59.0667 35.2931 59.7186 27.9265 55.5983 23.1888C53.9887 21.3378 51.9033 20.1368 49.6744 19.6074C49.0418 19.4571 48.6088 18.8791 48.658 18.2299C48.7552 16.9472 48.8195 16.1234 48.8598 15.5718C48.918 14.7734 49.6682 14.2017 50.4513 14.363V14.363ZM20.8796 53.3508C16.7593 48.6131 17.4112 41.2465 22.1927 37.097L37.4449 23.8608L42.0442 29.1606C42.8077 30.0404 44.2763 29.5559 44.3644 28.3788L45.3877 14.7147C45.4423 13.9871 44.8962 13.3579 44.1682 13.3094L30.4968 12.3991C29.3261 12.3212 28.6286 13.7015 29.3962 14.5862L33.9955 19.886L18.7626 33.1054C11.7551 39.1866 10.8138 49.7827 16.8126 56.7604C19.2914 59.6437 22.555 61.4616 26.0266 62.1766C26.8098 62.3378 27.56 61.7662 27.6182 60.9678C27.6584 60.4162 27.7227 59.5925 27.8199 58.3096C27.8691 57.6604 27.436 57.0824 26.8035 56.9322C24.5746 56.4027 22.4893 55.2016 20.8796 53.3508V53.3508Z" fill="#892FFF"/>
</svg>
