<svg width="18" height="17" viewBox="0 0 18 17" fill="none" xmlns="http://www.w3.org/2000/svg">
<g clip-path="url(#clip0_196_1531)">
<path d="M16.5031 6.03506L11.9375 5.36944L9.89689 1.23194C9.53127 0.494439 8.47189 0.485064 8.10314 1.23194L6.06251 5.36944L1.49689 6.03506C0.67814 6.15381 0.350015 7.16319 0.943765 7.74131L4.24689 10.9601L3.46564 15.5069C3.32501 16.3288 4.19064 16.9444 4.91564 16.5601L9.00002 14.4132L13.0844 16.5601C13.8094 16.9413 14.675 16.3288 14.5344 15.5069L13.7531 10.9601L17.0563 7.74131C17.65 7.16319 17.3219 6.15381 16.5031 6.03506V6.03506ZM12.1438 10.4351L12.8844 14.7601L9.00002 12.7194L5.11564 14.7601L5.85626 10.4351L2.71251 7.37256L7.05626 6.74131L9.00002 2.80381L10.9438 6.74131L15.2875 7.37256L12.1438 10.4351V10.4351Z" fill="#9788F6"/>
</g>
<defs>
<clipPath id="clip0_196_1531">
<rect width="18" height="16" fill="white" transform="translate(0 0.676758)"/>
</clipPath>
</defs>
</svg>
