<svg width="24" height="23" viewBox="0 0 24 23" fill="none" xmlns="http://www.w3.org/2000/svg">
<path d="M19.404 9.06094L14.8384 8.39532L12.7978 4.25782C12.4321 3.52032 11.3728 3.51094 11.004 4.25782L8.96339 8.39532L4.39777 9.06094C3.57902 9.17969 3.25089 10.1891 3.84464 10.7672L7.14777 13.9859L6.36652 18.5328C6.22589 19.3547 7.09152 19.9703 7.81652 19.5859L11.9009 17.4391L15.9853 19.5859C16.7103 19.9672 17.5759 19.3547 17.4353 18.5328L16.654 13.9859L19.9571 10.7672C20.5509 10.1891 20.2228 9.17969 19.404 9.06094ZM15.0446 13.4609L15.7853 17.7859L11.9009 15.7453L8.01652 17.7859L8.75714 13.4609L5.61339 10.3984L9.95714 9.76719L11.9009 5.82969L13.8446 9.76719L18.1884 10.3984L15.0446 13.4609Z" fill="#272729"/>
</svg>
