<svg width="25" height="25" viewBox="0 0 25 25" fill="none" xmlns="http://www.w3.org/2000/svg">
<g clip-path="url(#clip0_196_1485)">
<path d="M10.8333 5.18145V7.46895L12.2254 8.86113C11.9067 7.22988 12.3895 5.56582 13.5614 4.39395C14.5129 3.44238 15.7739 2.93145 17.077 2.93145H17.1333L14.4426 5.6127L15.1504 9.85957L19.3973 10.5674L22.0833 7.88144C22.0973 9.20801 21.5864 10.483 20.6208 11.4486C20.1848 11.8846 19.6739 12.2174 19.1301 12.4611C19.2145 12.5361 19.3129 12.5971 19.3926 12.6768L20.8317 14.1158C21.3239 13.8205 21.7926 13.4643 22.2098 13.0424C23.9958 11.2564 24.727 8.62207 24.1176 6.17051C23.977 5.59863 23.5364 5.14863 22.9739 4.98926C22.402 4.82988 21.7926 4.99395 21.3801 5.41113L18.6286 8.15801L17.1098 7.90488L16.8567 6.38613L19.6036 3.63926C20.0208 3.22207 20.1801 2.6127 20.0208 2.04551C19.8661 1.47832 19.4114 1.0377 18.8395 0.89707C16.3458 0.27832 13.7817 0.99082 11.9676 2.8002C11.4895 3.27832 11.1004 3.81738 10.7817 4.38926L10.8333 4.42676V5.18145ZM5.302 21.958C4.702 22.558 3.64731 22.558 3.04731 21.958C2.74731 21.658 2.57856 21.2549 2.57856 20.833C2.57856 20.4064 2.74263 20.008 3.04731 19.708L9.34731 13.408L7.75825 11.8189L1.45825 18.1143C0.731689 18.8408 0.333252 19.8064 0.333252 20.833C0.333252 21.8596 0.731689 22.8252 1.45825 23.5518C2.18481 24.2783 3.15044 24.6768 4.177 24.6768C5.20356 24.6768 6.16919 24.2783 6.89575 23.5518L11.6254 18.8221C11.1708 18.0814 10.9129 17.2377 10.8895 16.3799L5.302 21.958ZM23.8223 19.2252L18.3333 13.7361C17.2504 12.6533 15.6333 12.4424 14.3301 13.0846L9.33325 8.0877V5.17676L3.33325 0.676758L0.333252 3.67676L4.83325 9.67676H7.74419L12.7411 14.6736C12.1036 15.9768 12.3098 17.5939 13.3926 18.6768L18.8817 24.1658C19.5661 24.8502 20.6723 24.8502 21.352 24.1658L23.8223 21.6955C24.502 21.0111 24.502 19.9049 23.8223 19.2252Z" fill="#272729"/>
</g>
<defs>
<clipPath id="clip0_196_1485">
<rect width="24" height="24" fill="white" transform="translate(0.333252 0.676758)"/>
</clipPath>
</defs>
</svg>
