<svg width="14" height="15" viewBox="0 0 14 15" fill="none" xmlns="http://www.w3.org/2000/svg">
<path d="M6.81566 0.690662L6.19694 1.30938C6.0505 1.45582 6.0505 1.69326 6.19694 1.83972L11.0448 6.68751H0.375C0.167906 6.68751 0 6.85541 0 7.06251V7.93751C0 8.1446 0.167906 8.31251 0.375 8.31251H11.0448L6.19694 13.1603C6.0505 13.3068 6.0505 13.5442 6.19694 13.6907L6.81566 14.3094C6.96209 14.4558 7.19953 14.4558 7.346 14.3094L13.8902 7.76519C14.0366 7.61876 14.0366 7.38132 13.8902 7.23485L7.34597 0.690662C7.19953 0.544193 6.96209 0.544193 6.81566 0.690662Z" fill="white"/>
</svg>
