<svg width="325" height="84" viewBox="0 0 325 84" fill="none" xmlns="http://www.w3.org/2000/svg">
<path d="M207.942 62.0311L206.809 63.0142L207.792 64.1471L212.515 69.5887L198.353 68.6458L199.413 54.4921L204.136 59.9337L205.119 61.0666L206.252 60.0834L222.419 46.053C228.086 41.1354 228.895 32.3818 223.96 26.7069C222.059 24.5212 219.6 23.0948 216.974 22.4546C217.012 21.9507 217.046 21.5141 217.075 21.1348C217.116 20.5901 217.149 20.1638 217.174 19.8269C220.503 20.5353 223.624 22.2893 226.001 25.0549C231.801 31.8013 230.917 42.0926 224.089 48.0185L207.942 62.0311ZM216.967 22.5484L216.967 22.5482L216.967 22.5484ZM184.894 60.6473L184.894 60.6473C186.795 62.833 189.254 64.2594 191.88 64.8997C191.842 65.3957 191.809 65.8265 191.781 66.2016C191.738 66.7548 191.705 67.1868 191.68 67.5273C188.351 66.819 185.23 65.0649 182.852 62.2993C177.053 55.553 177.937 45.2616 184.765 39.3358L200.912 25.3232L202.045 24.34L201.062 23.2071L196.339 17.7655L210.501 18.7083L209.44 32.862L204.718 27.4205L203.735 26.2876L202.602 27.2707L186.435 41.3011C180.768 46.2189 179.959 54.9724 184.894 60.6473ZM196.187 17.5894L196.128 17.6401L196.187 17.5895L196.187 17.5894Z" fill="black" stroke="black" stroke-width="3"/>
<path d="M262.207 62.0311L261.074 63.0142L262.057 64.1471L266.779 69.5887L252.618 68.6458L253.678 54.4921L258.4 59.9337L259.384 61.0666L260.516 60.0834L276.684 46.053C282.351 41.1354 283.16 32.3818 278.224 26.7069C276.324 24.5212 273.865 23.0948 271.239 22.4546C271.277 21.9507 271.31 21.5141 271.339 21.1348C271.381 20.5901 271.414 20.1638 271.438 19.8269C274.768 20.5353 277.889 22.2893 280.266 25.0549C286.066 31.8013 285.182 42.0926 278.353 48.0185L262.207 62.0311ZM271.232 22.5484L271.232 22.5482L271.232 22.5484ZM239.159 60.6473L239.159 60.6473C241.06 62.833 243.519 64.2594 246.145 64.8997C246.107 65.3957 246.074 65.8265 246.045 66.2016C246.003 66.7548 245.97 67.1868 245.945 67.5273C242.615 66.819 239.495 65.0649 237.117 62.2993C231.317 55.553 232.201 45.2616 239.03 39.3358L255.177 25.3232L256.31 24.34L255.326 23.2071L250.604 17.7655L264.765 18.7083L263.705 32.862L258.983 27.4205L258 26.2876L256.867 27.2707L240.699 41.3011C235.033 46.2189 234.224 54.9724 239.159 60.6473ZM250.451 17.5894L250.393 17.6401L250.451 17.5895L250.451 17.5894Z" fill="black" stroke="black" stroke-width="3"/>
<path d="M314.549 71.0001C309.749 71.0001 306.182 69.7001 303.849 67.1001C301.515 64.5001 300.349 60.5334 300.349 55.2001V25.9001H292.549L292.649 18.3001H297.549C299.215 18.3001 300.416 18.0001 301.149 17.4001C301.949 16.8001 302.415 15.8001 302.549 14.4001L303.549 6.6001H309.149V18.3001H324.049V26.0001H309.149V55.0001C309.149 57.6668 309.749 59.6001 310.949 60.8001C312.215 61.9334 314.015 62.5001 316.349 62.5001C317.615 62.5001 318.916 62.3334 320.249 62.0001C321.649 61.6668 323.015 61.0001 324.349 60.0001V69.1001C322.415 69.8334 320.615 70.3334 318.949 70.6001C317.349 70.8668 315.882 71.0001 314.549 71.0001Z" fill="black"/>
<path d="M147.292 71.3C143.959 71.3 141.092 70.6333 138.692 69.3C136.359 67.9667 134.459 66.1667 132.992 63.9C131.592 61.5667 130.526 58.9333 129.792 56H128.192L128.692 70H120.492V44.5V0H129.692V16.2C129.692 17.9333 129.592 19.7667 129.392 21.7C129.259 23.5667 129.026 25.5 128.692 27.5C128.426 29.5 128.126 31.4333 127.792 33.3H129.592C130.326 30.5 131.392 27.8667 132.792 25.4C134.192 22.9333 136.059 20.9333 138.392 19.4C140.792 17.8667 143.759 17.1 147.292 17.1C151.692 17.1 155.426 18.2667 158.492 20.6C161.626 22.8667 164.026 26.0333 165.692 30.1C167.359 34.1667 168.192 38.9 168.192 44.3C168.192 49.5 167.359 54.1333 165.692 58.2C164.092 62.2667 161.726 65.4667 158.592 67.8C155.526 70.1333 151.759 71.3 147.292 71.3ZM145.092 63.3C147.959 63.3 150.392 62.5333 152.392 61C154.392 59.4667 155.926 57.2667 156.992 54.4C158.126 51.5333 158.692 48.2 158.692 44.4C158.692 40.6667 158.159 37.3667 157.092 34.5C156.026 31.5667 154.492 29.2667 152.492 27.6C150.492 25.8667 148.026 25 145.092 25C142.959 25 141.059 25.4333 139.392 26.3C137.726 27.1 136.259 28.2 134.992 29.6C133.792 31 132.792 32.5333 131.992 34.2C131.192 35.8667 130.592 37.5333 130.192 39.2C129.792 40.8667 129.592 42.4 129.592 43.8V45C129.592 47 129.926 49.0667 130.592 51.2C131.326 53.3333 132.359 55.3333 133.692 57.2C135.026 59 136.659 60.4667 138.592 61.6C140.526 62.7333 142.692 63.3 145.092 63.3Z" fill="black"/>
<path d="M86.2461 71.3C82.1794 71.3 78.5794 70.7 75.4461 69.5C72.3794 68.2333 69.7794 66.4333 67.6461 64.1C65.5128 61.7667 63.9128 59 62.8461 55.8C61.7794 52.6 61.2461 49 61.2461 45C61.2461 40.9333 61.7794 37.2 62.8461 33.8C63.9128 30.4 65.4794 27.4333 67.5461 24.9C69.6128 22.3667 72.1461 20.4333 75.1461 19.1C78.1461 17.7 81.5794 17 85.4461 17C88.8461 17 91.9461 17.5667 94.7461 18.7C97.5461 19.8333 99.9128 21.6 101.846 24C103.846 26.3333 105.346 29.3 106.346 32.9C107.346 36.4333 107.746 40.6 107.546 45.4L66.9461 45.7V39.5L102.046 39.2L98.9461 43.4C99.2794 39.2 98.8794 35.7333 97.7461 33C96.6128 30.2667 94.9794 28.2 92.8461 26.8C90.7794 25.4 88.3128 24.7 85.4461 24.7C82.3794 24.7 79.6794 25.5 77.3461 27.1C75.0128 28.7 73.2128 31 71.9461 34C70.7461 37 70.1461 40.6333 70.1461 44.9C70.1461 51.0333 71.5128 55.7333 74.2461 59C76.9794 62.2 81.0461 63.8 86.4461 63.8C88.5128 63.8 90.3128 63.5667 91.8461 63.1C93.4461 62.5667 94.7794 61.8667 95.8461 61C96.9794 60.0667 97.8794 59 98.5461 57.8C99.2794 56.6 99.8461 55.3 100.246 53.9L108.246 55.8C107.646 58.2 106.713 60.3667 105.446 62.3C104.246 64.1667 102.713 65.7667 100.846 67.1C99.0461 68.4333 96.9461 69.4667 94.5461 70.2C92.1461 70.9333 89.3794 71.3 86.2461 71.3Z" fill="black"/>
<path d="M0 70V4H23C26.3333 4 29.3667 4.26667 32.1 4.8C34.9 5.33333 37.3667 6.13333 39.5 7.2C41.7 8.26666 43.5333 9.56666 45 11.1C46.5333 12.6333 47.6667 14.4333 48.4 16.5C49.2 18.5 49.6 20.7333 49.6 23.2C49.6 25.5333 49.2333 27.6667 48.5 29.6C47.8333 31.5333 46.8 33.2333 45.4 34.7C44 36.1667 42.2667 37.3667 40.2 38.3C38.1333 39.1667 35.7333 39.7667 33 40.1V41.4C35.4 41.6667 37.5 42.3 39.3 43.3C41.1 44.3 42.6333 45.7667 43.9 47.7C45.1667 49.5667 46.2667 52.0667 47.2 55.2L51.4 70H41.5L38.1 56.5C37.5 53.7667 36.4667 51.5667 35 49.9C33.6 48.2333 31.8333 47 29.7 46.2C27.5667 45.4 25.0667 45 22.2 45H9.2V70H0ZM9.2 37.5H22.2C28.1333 37.5 32.6 36.4333 35.6 34.3C38.6667 32.1667 40.2 28.9 40.2 24.5C40.2 20.1 38.7333 16.8667 35.8 14.8C32.9333 12.6667 28.4667 11.6 22.4 11.6H9.2V37.5Z" fill="black"/>
</svg>
