<svg width="137" height="36" viewBox="0 0 137 36" fill="none" xmlns="http://www.w3.org/2000/svg">
<path d="M91.2733 8.11826C92.8185 8.43649 94.2711 9.24556 95.3743 10.5289C98.0443 13.6347 97.6253 18.3508 94.5064 21.0575L87.7264 26.9413L89.7735 29.3002C90.1152 29.6939 89.8047 30.3083 89.2836 30.2736L83.1987 29.8684C82.8746 29.8469 82.6316 29.5668 82.6558 29.2429L83.1113 23.1612C83.1506 22.6373 83.8042 22.4216 84.144 22.8133L86.1911 25.1721L92.9797 19.2808C95.1079 17.434 95.398 14.1552 93.5642 12.0465C92.8477 11.2227 91.9195 10.6881 90.9275 10.4525C90.6459 10.3856 90.4532 10.1283 90.4751 9.83939C90.5184 9.26845 90.547 8.9018 90.5649 8.65629C90.5908 8.30092 90.9247 8.0465 91.2733 8.11826V8.11826ZM78.1112 25.4713C76.2774 23.3626 76.5675 20.0838 78.6957 18.2369L85.4843 12.3456L87.5314 14.7045C87.8712 15.0961 88.5248 14.8804 88.564 14.3566L89.0195 8.27482C89.0438 7.95094 88.8007 7.6709 88.4767 7.64931L82.3918 7.24418C81.8707 7.2095 81.5602 7.82384 81.9019 8.21762L83.949 10.5765L77.169 16.4603C74.0501 19.167 73.6311 23.8832 76.3011 26.9889C77.4044 28.2722 78.8569 29.0813 80.4021 29.3995C80.7507 29.4713 81.0846 29.2169 81.1105 28.8615C81.1284 28.616 81.157 28.2494 81.2003 27.6784C81.2222 27.3894 81.0294 27.1322 80.7479 27.0653C79.7559 26.8297 78.8277 26.2951 78.1112 25.4713V25.4713Z" fill="#272729"/>
<path d="M114.059 8.11826C115.604 8.43649 117.056 9.24556 118.16 10.5289C120.83 13.6347 120.411 18.3508 117.292 21.0575L110.512 26.9413L112.559 29.3002C112.901 29.6939 112.59 30.3083 112.069 30.2736L105.984 29.8684C105.66 29.8469 105.417 29.5668 105.441 29.2429L105.897 23.1612C105.936 22.6373 106.59 22.4216 106.929 22.8133L108.976 25.1721L115.765 19.2808C117.893 17.434 118.183 14.1552 116.35 12.0465C115.633 11.2227 114.705 10.6881 113.713 10.4525C113.431 10.3856 113.239 10.1283 113.261 9.83939C113.304 9.26845 113.332 8.9018 113.35 8.65629C113.376 8.30092 113.71 8.0465 114.059 8.11826V8.11826ZM100.897 25.4713C99.0628 23.3626 99.3529 20.0838 101.481 18.2369L108.27 12.3456L110.317 14.7045C110.657 15.0961 111.31 14.8804 111.349 14.3566L111.805 8.27482C111.829 7.95094 111.586 7.6709 111.262 7.64931L105.177 7.24418C104.656 7.2095 104.346 7.82384 104.687 8.21762L106.734 10.5765L99.9544 16.4603C96.8355 19.167 96.4165 23.8832 99.0865 26.9889C100.19 28.2722 101.642 29.0813 103.188 29.3995C103.536 29.4713 103.87 29.2169 103.896 28.8615C103.914 28.616 103.942 28.2494 103.986 27.6784C104.008 27.3894 103.815 27.1322 103.533 27.0653C102.541 26.8297 101.613 26.2951 100.897 25.4713V25.4713Z" fill="#272729"/>
<path d="M132.077 30.2316C130.062 30.2316 128.564 29.6858 127.584 28.594C126.605 27.5023 126.115 25.8367 126.115 23.5973V11.2944H122.84L122.882 8.10319H124.939C125.639 8.10319 126.143 7.97723 126.451 7.72529C126.787 7.47335 126.983 7.05346 127.039 6.4656L127.458 3.19043H129.81V8.10319H136.066V11.3364H129.81V23.5133C129.81 24.633 130.062 25.4448 130.566 25.9487C131.098 26.4246 131.853 26.6625 132.833 26.6625C133.365 26.6625 133.911 26.5925 134.471 26.4526C135.059 26.3126 135.632 26.0327 136.192 25.6128V29.4338C135.38 29.7418 134.625 29.9517 133.925 30.0637C133.253 30.1756 132.637 30.2316 132.077 30.2316Z" fill="#272729"/>
<path d="M61.8472 30.3577C60.4475 30.3577 59.2438 30.0777 58.2361 29.5179C57.2563 28.958 56.4585 28.2022 55.8427 27.2504C55.2548 26.2707 54.8069 25.165 54.499 23.9333H53.8272L54.0371 29.8118H50.594V19.1045V0.419189H54.457V7.22148C54.457 7.9493 54.415 8.71911 54.3311 9.5309C54.2751 10.3147 54.1771 11.1265 54.0371 11.9663C53.9252 12.8061 53.7992 13.6179 53.6592 14.4017H54.415C54.723 13.226 55.1708 12.1202 55.7587 11.0845C56.3465 10.0488 57.1304 9.20898 58.1101 8.56514C59.1179 7.9213 60.3635 7.59938 61.8472 7.59938C63.6947 7.59938 65.2623 8.08926 66.55 9.06902C67.8657 10.0208 68.8734 11.3504 69.5732 13.058C70.2731 14.7656 70.623 16.7531 70.623 19.0205C70.623 21.204 70.2731 23.1495 69.5732 24.857C68.9014 26.5646 67.9076 27.9083 66.592 28.888C65.3043 29.8678 63.7227 30.3577 61.8472 30.3577ZM60.9234 26.9985C62.1271 26.9985 63.1488 26.6766 63.9886 26.0328C64.8284 25.3889 65.4723 24.4651 65.9201 23.2615C66.396 22.0578 66.634 20.6581 66.634 19.0625C66.634 17.4949 66.41 16.1092 65.9621 14.9056C65.5142 13.6739 64.8704 12.7081 64.0306 12.0083C63.1908 11.2805 62.1551 10.9166 60.9234 10.9166C60.0276 10.9166 59.2298 11.0985 58.53 11.4624C57.8302 11.7983 57.2143 12.2602 56.6825 12.8481C56.1786 13.4359 55.7587 14.0798 55.4228 14.7796C55.0869 15.4794 54.8349 16.1792 54.667 16.8791C54.499 17.5789 54.415 18.2227 54.415 18.8106V19.3144C54.415 20.1542 54.555 21.022 54.8349 21.9178C55.1429 22.8136 55.5767 23.6534 56.1366 24.4372C56.6965 25.193 57.3823 25.8088 58.1941 26.2847C59.0059 26.7606 59.9157 26.9985 60.9234 26.9985Z" fill="#272729"/>
<path d="M36.2142 30.3576C34.5066 30.3576 32.995 30.1057 31.6793 29.6018C30.3916 29.07 29.2999 28.3142 28.4041 27.3344C27.5083 26.3547 26.8365 25.1929 26.3886 23.8493C25.9407 22.5056 25.7168 20.994 25.7168 19.3144C25.7168 17.6068 25.9407 16.0392 26.3886 14.6116C26.8365 13.184 27.4944 11.9383 28.3621 10.8745C29.2299 9.81081 30.2936 8.99901 31.5533 8.43915C32.813 7.8513 34.2547 7.55737 35.8782 7.55737C37.3059 7.55737 38.6076 7.79531 39.7833 8.27119C40.959 8.74707 41.9527 9.48889 42.7645 10.4966C43.6043 11.4764 44.2341 12.7221 44.654 14.2337C45.0739 15.7173 45.2419 17.4669 45.1579 19.4824L28.1102 19.6083V17.005L42.8485 16.879L41.5468 18.6426C41.6868 16.879 41.5188 15.4234 41.0429 14.2757C40.5671 13.128 39.8812 12.2602 38.9855 11.6723C38.1177 11.0845 37.0819 10.7906 35.8782 10.7906C34.5906 10.7906 33.4569 11.1265 32.4771 11.7983C31.4973 12.4701 30.7415 13.4359 30.2097 14.6956C29.7058 15.9553 29.4539 17.4809 29.4539 19.2724C29.4539 21.8478 30.0277 23.8213 31.1754 25.1929C32.3231 26.5366 34.0307 27.2084 36.2981 27.2084C37.1659 27.2084 37.9217 27.1105 38.5656 26.9145C39.2374 26.6906 39.7973 26.3966 40.2451 26.0327C40.721 25.6408 41.0989 25.1929 41.3789 24.6891C41.6868 24.1852 41.9247 23.6393 42.0927 23.0515L45.4518 23.8493C45.1999 24.857 44.808 25.7668 44.2761 26.5786C43.7723 27.3624 43.1284 28.0342 42.3446 28.5941C41.5888 29.1539 40.707 29.5878 39.6993 29.8958C38.6915 30.2037 37.5298 30.3576 36.2142 30.3576Z" fill="#272729"/>
<path d="M0 29.8119V2.09888H9.65757C11.0572 2.09888 12.3309 2.21085 13.4786 2.43479C14.6543 2.65874 15.6901 2.99465 16.5858 3.44254C17.5096 3.89043 18.2794 4.43629 18.8953 5.08013C19.5391 5.72396 20.015 6.47977 20.3229 7.34756C20.6588 8.18735 20.8268 9.12511 20.8268 10.1609C20.8268 11.1406 20.6728 12.0364 20.3649 12.8482C20.085 13.66 19.6511 14.3738 19.0632 14.9896C18.4754 15.6055 17.7475 16.1094 16.8798 16.5013C16.012 16.8652 15.0042 17.1171 13.8565 17.2571V17.8029C14.8643 17.9149 15.746 18.1808 16.5019 18.6007C17.2577 19.0206 17.9015 19.6365 18.4334 20.4483C18.9652 21.2321 19.4271 22.2818 19.819 23.5975L21.5826 29.8119H17.4256L15.998 24.1433C15.746 22.9956 15.3122 22.0719 14.6963 21.372C14.1085 20.6722 13.3666 20.1543 12.4709 19.8184C11.5751 19.4825 10.5254 19.3146 9.32166 19.3146H3.86303V29.8119H0ZM3.86303 16.1653H9.32166C11.813 16.1653 13.6886 15.7175 14.9482 14.8217C16.2359 13.9259 16.8798 12.5543 16.8798 10.7067C16.8798 8.85918 16.2639 7.50152 15.0322 6.63374C13.8285 5.73796 11.953 5.29007 9.40564 5.29007H3.86303V16.1653Z" fill="#272729"/>
</svg>
