<svg width="118" height="31" viewBox="0 0 118 31" fill="none" xmlns="http://www.w3.org/2000/svg">
<g id="Frame" clip-path="url(#clip0_288_103)">
<path id="Vector" d="M78.2339 7.14081C79.5585 7.4136 80.8039 8.10707 81.7492 9.20707C84.0379 11.8691 83.6785 15.9115 81.0052 18.2316L75.1939 23.2749L76.9485 25.2967C77.2412 25.6343 76.9752 26.1608 76.5285 26.1311L71.3132 25.7838C71.0352 25.7653 70.8272 25.5253 70.8479 25.2477L71.2379 20.0347C71.2719 19.5857 71.8319 19.4009 72.1232 19.7365L73.8779 21.7584L79.6965 16.7087C81.5212 15.1257 81.7699 12.3153 80.1979 10.5079C79.5839 9.80173 78.7879 9.34353 77.9379 9.14153C77.6965 9.0842 77.5312 8.86373 77.5499 8.61607C77.5872 8.12667 77.6119 7.8124 77.6272 7.602C77.6492 7.2974 77.9352 7.07929 78.2339 7.14081ZM66.9525 22.0148C65.3805 20.2073 65.6292 17.397 67.4532 15.8139L73.2719 10.7643L75.0265 12.7861C75.3179 13.1218 75.8785 12.9369 75.9119 12.4879L76.3025 7.275C76.3232 6.99739 76.1145 6.75735 75.8372 6.73885L70.6212 6.39159C70.1745 6.36187 69.9085 6.88844 70.2019 7.22593L71.9559 9.24787L66.1448 14.2911C63.4714 16.6111 63.1123 20.6536 65.4009 23.3156C66.3465 24.4156 67.5919 25.1091 68.9159 25.3819C69.2145 25.4434 69.5012 25.2253 69.5232 24.9207C69.5385 24.7103 69.5632 24.3961 69.5999 23.9066C69.6192 23.6589 69.4539 23.4385 69.2125 23.3811C68.3619 23.1791 67.5665 22.7209 66.9525 22.0148Z" fill="#F2F2F2"/>
<path id="Vector_2" d="M97.7647 7.14081C99.0894 7.4136 100.334 8.10707 101.28 9.20707C103.569 11.8691 103.209 15.9115 100.536 18.2316L94.7247 23.2749L96.4794 25.2967C96.772 25.6343 96.506 26.1608 96.0594 26.1311L90.8434 25.7838C90.566 25.7653 90.3574 25.5253 90.3787 25.2477L90.7687 20.0347C90.8027 19.5857 91.3627 19.4009 91.654 19.7365L93.4087 21.7584L99.2274 16.7087C101.051 15.1257 101.3 12.3153 99.7287 10.5079C99.114 9.80173 98.3187 9.34353 97.468 9.14153C97.2267 9.0842 97.062 8.86373 97.0807 8.61607C97.1174 8.12667 97.142 7.8124 97.1574 7.602C97.18 7.2974 97.466 7.07929 97.7647 7.14081ZM86.4827 22.0148C84.9114 20.2073 85.16 17.397 86.984 15.8139L92.8027 10.7643L94.5574 12.7861C94.8487 13.1218 95.4087 12.9369 95.4427 12.4879L95.8327 7.275C95.854 6.99739 95.6454 6.75735 95.368 6.73885L90.152 6.39159C89.7054 6.36187 89.4394 6.88844 89.732 7.22593L91.4867 9.24787L85.6754 14.2911C83.002 16.6111 82.6427 20.6536 84.9314 23.3156C85.8774 24.4156 87.122 25.1091 88.4467 25.3819C88.7454 25.4434 89.0314 25.2253 89.054 24.9207C89.0694 24.7103 89.0934 24.3961 89.1307 23.9066C89.1494 23.6589 88.984 23.4385 88.7427 23.3811C87.8927 23.1791 87.0974 22.7209 86.4827 22.0148Z" fill="#F2F2F2"/>
<path id="Vector_3" d="M113.209 26.0952C111.481 26.0952 110.198 25.6273 109.358 24.6915C108.519 23.7558 108.099 22.3281 108.099 20.4086V9.86324H105.291L105.327 7.12793H107.091C107.691 7.12793 108.123 7.01996 108.387 6.80402C108.674 6.58807 108.842 6.22816 108.89 5.72429L109.25 2.91699H111.266V7.12793H116.628V9.89924H111.266V20.3366C111.266 21.2964 111.481 21.9922 111.913 22.4241C112.369 22.832 113.017 23.0359 113.857 23.0359C114.313 23.0359 114.781 22.976 115.261 22.856C115.765 22.736 116.257 22.4961 116.736 22.1362V25.4114C116.041 25.6753 115.393 25.8552 114.793 25.9512C114.217 26.0472 113.689 26.0952 113.209 26.0952Z" fill="#F2F2F2"/>
<path id="Vector_4" d="M53.0118 26.203C51.8121 26.203 50.7803 25.9631 49.9166 25.4832C49.0768 25.0034 48.3929 24.3555 47.8651 23.5397C47.3612 22.7 46.9773 21.7522 46.7134 20.6964H46.1375L46.3175 25.7352H43.3662V16.5575V0.541504H46.6774V6.37204C46.6774 6.99588 46.6414 7.6557 46.5694 8.35157C46.5214 9.02337 46.4375 9.71917 46.3175 10.439C46.2215 11.1588 46.1135 11.8546 45.9935 12.5265H46.6414C46.9053 11.5188 47.2892 10.571 47.7931 9.68324C48.297 8.79544 48.9688 8.07564 49.8086 7.52377C50.6724 6.97189 51.7401 6.69596 53.0118 6.69596C54.5954 6.69596 55.9391 7.11585 57.0428 7.95564C58.1705 8.77144 59.0343 9.91117 59.6341 11.3748C60.234 12.8384 60.5339 14.542 60.5339 16.4855C60.5339 18.357 60.234 20.0246 59.6341 21.4882C59.0583 22.9519 58.2065 24.1036 57.0788 24.9434C55.9751 25.7832 54.6194 26.203 53.0118 26.203ZM52.22 23.3238C53.2517 23.3238 54.1275 23.0478 54.8473 22.496C55.5671 21.9441 56.119 21.1523 56.5029 20.1206C56.9108 19.0888 57.1147 17.8892 57.1147 16.5215C57.1147 15.1778 56.9228 13.9901 56.5389 12.9584C56.155 11.9026 55.6031 11.0748 54.8833 10.475C54.1635 9.85117 53.2757 9.53924 52.22 9.53924C51.4522 9.53924 50.7683 9.69524 50.1685 10.0071C49.5687 10.295 49.0408 10.691 48.5849 11.1948C48.153 11.6987 47.7931 12.2506 47.5052 12.8504C47.2173 13.4502 47.0013 14.0501 46.8573 14.65C46.7134 15.2498 46.6414 15.8016 46.6414 16.3056V16.7374C46.6414 17.4572 46.7613 18.201 47.0013 18.9689C47.2653 19.7367 47.6371 20.4565 48.117 21.1283C48.5969 21.7762 49.1847 22.304 49.8806 22.7119C50.5764 23.1198 51.3562 23.3238 52.22 23.3238Z" fill="#F2F2F2"/>
<path id="Vector_5" d="M31.0409 26.203C29.5773 26.203 28.2816 25.987 27.1539 25.5552C26.0502 25.0993 25.1144 24.4514 24.3466 23.6116C23.5788 22.7719 23.0029 21.7761 22.6191 20.6244C22.2351 19.4727 22.0432 18.177 22.0432 16.7374C22.0432 15.2738 22.2351 13.9301 22.6191 12.7064C23.0029 11.4827 23.5668 10.415 24.3106 9.50323C25.0545 8.59143 25.9662 7.89563 27.0459 7.41576C28.1257 6.91185 29.3613 6.65991 30.753 6.65991C31.9767 6.65991 33.0924 6.86387 34.1002 7.27176C35.1079 7.67963 35.9597 8.31549 36.6555 9.17929C37.3753 10.0191 37.9152 11.0868 38.2751 12.3825C38.635 13.6542 38.779 15.1538 38.707 16.8814L24.0947 16.9893V14.7579L36.7275 14.6499L35.6118 16.1616C35.7317 14.6499 35.5878 13.4022 35.1799 12.4185C34.772 11.4347 34.1841 10.6909 33.4163 10.187C32.6725 9.68316 31.7847 9.43123 30.753 9.43123C29.6493 9.43123 28.6775 9.71916 27.8377 10.295C26.9979 10.8708 26.3501 11.6986 25.8942 12.7784C25.4623 13.8581 25.2464 15.1658 25.2464 16.7014C25.2464 18.9088 25.7383 20.6004 26.722 21.7761C27.7058 22.9278 29.1694 23.5037 31.1129 23.5037C31.8567 23.5037 32.5046 23.4197 33.0564 23.2518C33.6323 23.0598 34.1121 22.8078 34.4961 22.496C34.904 22.16 35.2279 21.7761 35.4678 21.3442C35.7317 20.9124 35.9357 20.4444 36.0797 19.9406L38.9589 20.6244C38.743 21.4882 38.4071 22.268 37.9512 22.9638C37.5193 23.6356 36.9675 24.2115 36.2956 24.6914C35.6478 25.1713 34.892 25.5432 34.0282 25.8071C33.1644 26.071 32.1687 26.203 31.0409 26.203Z" fill="#F2F2F2"/>
<path id="Vector_6" d="M0 25.7353V1.9812H8.27793C9.4776 1.9812 10.5693 2.07718 11.5531 2.26913C12.5609 2.46108 13.4486 2.74901 14.2164 3.13291C15.0082 3.51681 15.6681 3.9847 16.1959 4.53656C16.7478 5.08842 17.1557 5.73626 17.4196 6.48007C17.7075 7.19989 17.8515 8.00372 17.8515 8.89145C17.8515 9.73125 17.7195 10.4991 17.4556 11.1949C17.2157 11.8907 16.8438 12.5026 16.3399 13.0305C15.836 13.5583 15.2122 13.9902 14.4683 14.3261C13.7245 14.6381 12.8608 14.854 11.877 14.9739V15.4419C12.7408 15.5378 13.4966 15.7657 14.1445 16.1257C14.7923 16.4856 15.3441 17.0135 15.8 17.7093C16.2559 18.3811 16.6518 19.2809 16.9877 20.4086L18.4993 25.7353H14.9363L13.7125 20.8765C13.4966 19.8927 13.1247 19.1009 12.5969 18.5011C12.0929 17.9012 11.4571 17.4573 10.6893 17.1694C9.92153 16.8815 9.02173 16.7375 7.99 16.7375H3.31117V25.7353H0ZM3.31117 14.0382H7.99C10.1255 14.0382 11.7331 13.6543 12.8128 12.8865C13.9165 12.1187 14.4683 10.9429 14.4683 9.35932C14.4683 7.77572 13.9405 6.61204 12.8847 5.86823C11.853 5.10042 10.2454 4.71651 8.062 4.71651H3.31117V14.0382Z" fill="#F2F2F2"/>
</g>
<defs>
<clipPath id="clip0_288_103">
<rect width="117.333" height="30" fill="white" transform="translate(0 0.541504)"/>
</clipPath>
</defs>
</svg>
