<svg width="194" height="50" viewBox="0 0 194 50" fill="none" xmlns="http://www.w3.org/2000/svg">
<path d="M124.125 36.9234L123.449 37.5085L124.036 38.1829L126.855 41.4219L118.401 40.8607L119.034 32.4359L121.853 35.6749L122.44 36.3493L123.117 35.764L132.767 27.4126C136.15 24.4854 136.633 19.275 133.687 15.8971C132.552 14.596 131.084 13.747 129.517 13.3659C129.539 13.066 129.56 12.8061 129.577 12.5803C129.602 12.2561 129.621 12.0024 129.636 11.8018C131.623 12.2235 133.486 13.2675 134.905 14.9137C138.367 18.9294 137.84 25.0552 133.764 28.5825L124.125 36.9234ZM110.367 36.0997C111.502 37.4007 112.97 38.2497 114.538 38.6309C114.515 38.9261 114.495 39.1825 114.478 39.4058C114.453 39.7351 114.433 39.9922 114.418 40.1949C112.431 39.7733 110.568 38.7292 109.149 37.083C105.687 33.0674 106.215 26.9415 110.29 23.4143L119.929 15.0734L120.605 14.4882L120.019 13.8138L117.199 10.5748L125.653 11.136L125.02 19.5608L122.201 16.3218L121.614 15.6475L120.938 16.2326L111.287 24.5841C107.905 27.5113 107.422 32.7218 110.367 36.0997Z" fill="#1A3837"/>
<path d="M117.109 10.47L117.073 10.5001M124.125 36.9234L123.449 37.5085L124.036 38.1829L126.855 41.4219L118.401 40.8607L119.034 32.4359L121.853 35.6749L122.44 36.3493L123.117 35.764L132.767 27.4126C136.15 24.4854 136.633 19.275 133.687 15.8971C132.552 14.596 131.084 13.747 129.517 13.3659C129.539 13.066 129.56 12.8061 129.577 12.5803C129.602 12.2561 129.621 12.0024 129.636 11.8018C131.623 12.2235 133.486 13.2675 134.905 14.9137C138.367 18.9294 137.84 25.0552 133.764 28.5825L124.125 36.9234ZM110.367 36.0997C111.502 37.4007 112.97 38.2497 114.538 38.6309C114.515 38.9261 114.495 39.1825 114.478 39.4058C114.453 39.7351 114.433 39.9922 114.418 40.1949C112.431 39.7733 110.568 38.7292 109.149 37.083C105.687 33.0674 106.215 26.9415 110.29 23.4143L119.929 15.0734L120.605 14.4882L120.019 13.8138L117.199 10.5748L125.653 11.136L125.02 19.5608L122.201 16.3218L121.614 15.6475L120.938 16.2326L111.287 24.5841C107.905 27.5113 107.422 32.7218 110.367 36.0997Z" stroke="#1A3837"/>
<path d="M156.517 36.9234L155.841 37.5085L156.428 38.1829L159.247 41.4219L150.793 40.8607L151.426 32.4359L154.245 35.6749L154.832 36.3493L155.508 35.764L165.159 27.4126C168.542 24.4854 169.025 19.275 166.078 15.8971C164.944 14.596 163.476 13.747 161.909 13.3659C161.931 13.066 161.951 12.8061 161.968 12.5803C161.994 12.2561 162.013 12.0024 162.028 11.8018C164.015 12.2235 165.878 13.2675 167.297 14.9137C170.759 18.9294 170.232 25.0552 166.155 28.5825L156.517 36.9234ZM142.76 36.0997C143.894 37.4007 145.362 38.2497 146.93 38.6309C146.907 38.9261 146.887 39.1825 146.87 39.4058C146.845 39.7351 146.825 39.9922 146.81 40.1949C144.822 39.7733 142.96 38.7292 141.541 37.083C138.078 33.0674 138.606 26.9415 142.682 23.4143L152.321 15.0734L152.997 14.4882L152.41 13.8138L149.591 10.5748L158.044 11.136L157.412 19.5608L154.593 16.3218L154.006 15.6475L153.33 16.2326L143.679 24.5841C140.297 27.5113 139.814 32.7218 142.76 36.0997Z" fill="#1A3837"/>
<path d="M149.5 10.47L149.465 10.5001M156.517 36.9234L155.841 37.5085L156.428 38.1829L159.247 41.4219L150.793 40.8607L151.426 32.4359L154.245 35.6749L154.832 36.3493L155.508 35.764L165.159 27.4126C168.542 24.4854 169.025 19.275 166.078 15.8971C164.944 14.596 163.476 13.747 161.909 13.3659C161.931 13.066 161.951 12.8061 161.968 12.5803C161.994 12.2561 162.013 12.0024 162.028 11.8018C164.015 12.2235 165.878 13.2675 167.297 14.9137C170.759 18.9294 170.232 25.0552 166.155 28.5825L156.517 36.9234ZM142.76 36.0997C143.894 37.4007 145.362 38.2497 146.93 38.6309C146.907 38.9261 146.887 39.1825 146.87 39.4058C146.845 39.7351 146.825 39.9922 146.81 40.1949C144.822 39.7733 142.96 38.7292 141.541 37.083C138.078 33.0674 138.606 26.9415 142.682 23.4143L152.321 15.0734L152.997 14.4882L152.41 13.8138L149.591 10.5748L158.044 11.136L157.412 19.5608L154.593 16.3218L154.006 15.6475L153.33 16.2326L143.679 24.5841C140.297 27.5113 139.814 32.7218 142.76 36.0997Z" stroke="#1A3837"/>
<path d="M187.761 42.262C184.896 42.262 182.767 41.4882 181.374 39.9406C179.981 38.393 179.285 36.0319 179.285 32.8573V15.4168H174.629L174.689 10.893H177.614C178.608 10.893 179.325 10.7144 179.763 10.3573C180.24 10.0001 180.518 9.4049 180.598 8.57157L181.195 3.92871H184.538V10.893H193.432V15.4763H184.538V32.7382C184.538 34.3256 184.896 35.4763 185.613 36.1906C186.368 36.8652 187.443 37.2025 188.836 37.2025C189.592 37.2025 190.368 37.1033 191.164 36.9049C192 36.7065 192.815 36.3097 193.611 35.7144V41.1311C192.457 41.5676 191.382 41.8652 190.388 42.024C189.433 42.1827 188.557 42.262 187.761 42.262Z" fill="#1A3837"/>
<path d="M87.9221 42.4405C85.9326 42.4405 84.2212 42.0436 82.7886 41.25C81.3959 40.4564 80.2618 39.3849 79.3861 38.0357C78.5504 36.6468 77.9141 35.0793 77.476 33.3333H76.5209L76.8193 41.6667H71.9246V26.4881V0H77.4163V9.64286C77.4163 10.6746 77.3566 11.7659 77.2372 12.9167C77.1578 14.0278 77.0187 15.1786 76.8193 16.369C76.6606 17.5595 76.4815 18.7103 76.2821 19.8214H77.3566C77.7947 18.1548 78.431 16.5873 79.2667 15.119C80.1024 13.6508 81.2169 12.4603 82.6095 11.5476C84.0421 10.6349 85.8132 10.1786 87.9221 10.1786C90.5486 10.1786 92.7775 10.873 94.6076 12.2619C96.4784 13.6111 97.911 15.496 98.9055 17.9167C99.9006 20.3373 100.398 23.1548 100.398 26.369C100.398 29.4643 99.9006 32.2222 98.9055 34.6429C97.9504 37.0635 96.5381 38.9683 94.6673 40.3571C92.8372 41.746 90.5886 42.4405 87.9221 42.4405ZM86.6089 37.6786C88.3202 37.6786 89.7726 37.2222 90.9664 36.3095C92.1603 35.3968 93.0759 34.0873 93.7123 32.381C94.3892 30.6746 94.727 28.6905 94.727 26.4286C94.727 24.2064 94.4089 22.2421 93.7719 20.5357C93.1356 18.7897 92.22 17.4207 91.0261 16.4286C89.8323 15.3968 88.3602 14.881 86.6089 14.881C85.3356 14.881 84.2015 15.1389 83.2064 15.6548C82.2119 16.131 81.3363 16.7857 80.58 17.619C79.8636 18.4524 79.2667 19.3651 78.7892 20.3571C78.3116 21.3492 77.9535 22.3413 77.7147 23.3333C77.4759 24.3254 77.3566 25.2381 77.3566 26.0714V26.7857C77.3566 27.9762 77.5559 29.2064 77.9535 30.4762C78.3916 31.746 79.0082 32.9365 79.8039 34.0476C80.6002 35.119 81.575 35.9921 82.7289 36.6667C83.8833 37.3412 85.1763 37.6786 86.6089 37.6786Z" fill="#1A3837"/>
<path d="M51.4824 42.4406C49.0549 42.4406 46.906 42.0834 45.0356 41.3691C43.205 40.6152 41.6531 39.5437 40.3796 38.1549C39.1062 36.766 38.1511 35.1191 37.5144 33.2144C36.8777 31.3096 36.5593 29.1668 36.5593 26.7858C36.5593 24.3652 36.8777 22.1429 37.5144 20.1191C38.1511 18.0953 39.0863 16.3294 40.3199 14.8215C41.5536 13.3136 43.0658 12.1628 44.8566 11.3691C46.6473 10.5358 48.6967 10.1191 51.0049 10.1191C53.0344 10.1191 54.8849 10.4565 56.5562 11.131C58.2276 11.8056 59.6404 12.8572 60.7943 14.2858C61.9882 15.6747 62.8836 17.4406 63.4805 19.5834C64.0774 21.6866 64.3162 24.1668 64.1968 27.0239L39.9618 27.2025V23.512L60.9137 23.3334L59.0633 25.8334C59.2623 23.3334 59.0235 21.2699 58.347 19.643C57.6705 18.016 56.6955 16.7858 55.4221 15.9525C54.1884 15.1191 52.7161 14.7025 51.0049 14.7025C49.1743 14.7025 47.5626 15.1787 46.1698 16.131C44.777 17.0834 43.7025 18.4525 42.9464 20.2382C42.2301 22.0239 41.8719 24.1866 41.8719 26.7263C41.8719 30.3771 42.6878 33.1747 44.3193 35.1191C45.9509 37.0239 48.3784 37.9763 51.6018 37.9763C52.8354 37.9763 53.9099 37.8374 54.8252 37.5596C55.7802 37.2422 56.5761 36.8255 57.2129 36.3096C57.8894 35.7541 58.4266 35.1191 58.8246 34.4049C59.2623 33.6906 59.6006 32.9168 59.8393 32.0834L64.6147 33.2144C64.2565 34.6429 63.6996 35.9327 62.9433 37.0834C62.227 38.1946 61.3119 39.1469 60.1974 39.9406C59.123 40.7342 57.8695 41.3493 56.4369 41.7858C55.0042 42.2223 53.3527 42.4406 51.4824 42.4406Z" fill="#1A3837"/>
<path d="M0 41.6666V2.38086H13.7292C15.719 2.38086 17.5297 2.53959 19.1612 2.85705C20.8326 3.17451 22.305 3.6507 23.5785 4.28562C24.8917 4.92054 25.986 5.69435 26.8615 6.60705C27.7768 7.51973 28.4534 8.59116 28.8911 9.82134C29.3686 11.0118 29.6074 12.3412 29.6074 13.8094C29.6074 15.1983 29.3885 16.4682 28.9508 17.619C28.5528 18.7697 27.936 19.7816 27.1003 20.6547C26.2646 21.5277 25.23 22.242 23.9963 22.7975C22.7626 23.3134 21.33 23.6706 19.6985 23.869V24.6428C21.1311 24.8015 22.3846 25.1785 23.4591 25.7737C24.5335 26.369 25.4488 27.242 26.2049 28.3928C26.961 29.5039 27.6177 30.992 28.1748 32.8571L30.6818 41.6666H24.7723L22.7428 33.6309C22.3846 32.0039 21.7678 30.6944 20.8923 29.7023C20.0566 28.7102 19.002 27.9761 17.7286 27.4999C16.4552 27.0237 14.9629 26.7856 13.2517 26.7856H5.49169V41.6666H0ZM5.49169 22.3213H13.2517C16.7934 22.3213 19.4597 21.6864 21.2505 20.4166C23.081 19.1468 23.9963 17.2023 23.9963 14.5832C23.9963 11.9642 23.1208 10.0396 21.3698 8.80943C19.6586 7.53961 16.9924 6.90467 13.3711 6.90467H5.49169V22.3213Z" fill="#1A3837"/>
</svg>
